<svg width="64" height="64" viewBox="0 0 64 64" fill="none" xmlns="http://www.w3.org/2000/svg">
<path fill-rule="evenodd" clip-rule="evenodd" d="M64.1024 31.9744C64.1024 49.6128 49.8432 63.9232 32.2048 63.9744H32C14.3872 63.9232 0.102417 49.6128 0.102417 31.9744C0.102417 14.336 14.3872 0.0511958 32 -0.0256042H32.2048C49.8432 0.0511958 64.1024 14.336 64.1024 31.9744Z" fill="#B4252A"/>
<path fill-rule="evenodd" clip-rule="evenodd" d="M32 25.1904C27.4176 25.1904 23.7056 28.9024 23.7056 33.4848C23.7056 38.0672 27.4176 41.7792 32 41.7792C36.5824 41.7792 40.2944 38.0672 40.2944 33.4848C40.2944 28.9024 36.5824 25.1904 32 25.1904ZM32 38.9632C28.9792 38.9632 26.5216 36.5056 26.5216 33.4848C26.5216 30.464 28.9792 28.0064 32 28.0064C35.0208 28.0064 37.4784 30.464 37.4784 33.4848C37.4784 36.5056 35.0208 38.9632 32 38.9632ZM49.28 27.9808V42.112C49.28 44.288 47.5136 46.0544 45.3376 46.0544H19.3792V48.8192H45.8496C49.28 48.8192 52.0704 46.0288 52.0704 42.5984V27.9808H49.28ZM41.5488 19.712L38.016 15.872C37.6064 15.4368 37.0688 15.2064 36.48 15.2064H32.0256H28.0064C27.4176 15.2064 26.8544 15.4624 26.4448 15.8976L22.9376 19.712H14.976C13.2864 19.712 11.9296 21.0688 11.9296 22.7584V48.8192H14.6944V22.4768L22.9376 22.4512C23.7056 22.4512 24.448 22.1184 24.9856 21.5552L28.3136 17.9456H36.1216L39.4496 21.5296C39.9872 22.0928 40.7296 22.4256 41.4976 22.4256L52.0448 22.4512V19.712H41.5488Z" fill="white"/>
<path fill-rule="evenodd" clip-rule="evenodd" d="M64.1024 31.9744C64.1024 49.6128 49.8432 63.9232 32.2048 63.9744H32V-0.0256042H32.2048C49.8432 0.0511958 64.1024 14.336 64.1024 31.9744Z" fill="#949597"/>
<path fill-rule="evenodd" clip-rule="evenodd" d="M32 41.7792V38.9632C35.0208 38.9632 37.4784 36.5056 37.4784 33.4848C37.4784 30.464 35.0208 28.0064 32 28.0064V25.1904C36.5824 25.1904 40.2944 28.9024 40.2944 33.4848C40.2944 38.0672 36.5824 41.7792 32 41.7792Z" fill="#E1E1E1"/>
<path fill-rule="evenodd" clip-rule="evenodd" d="M52.0704 19.712V22.4768L41.5232 22.4512C40.7552 22.4512 40.0128 22.1184 39.4752 21.5552L36.1472 17.9712H32V15.1808H36.4544C37.0432 15.1808 37.6064 15.4368 37.9904 15.8464L41.5232 19.6864H52.0704V19.712Z" fill="#E1E1E1"/>
<path fill-rule="evenodd" clip-rule="evenodd" d="M49.28 27.9808H52.0448V42.5984C52.0448 46.0288 49.2544 48.8192 45.824 48.8192H32V46.0544H45.3632C47.5392 46.0544 49.3056 44.288 49.3056 42.112V27.9808H49.28Z" fill="#E1E1E1"/>
</svg>
