<svg width="25" height="24" viewBox="0 0 25 24" fill="none" xmlns="http://www.w3.org/2000/svg">
<path d="M17.1569 8.31375C17.0529 8.04406 16.8937 7.79917 16.6894 7.59486C16.4852 7.39055 16.2405 7.23134 15.9711 7.1275C15.6002 6.98991 15.2084 6.91718 14.8128 6.9125C14.155 6.8825 13.9578 6.875 12.2915 6.875C10.6252 6.875 10.428 6.8825 9.77021 6.9125C9.37424 6.91704 8.982 6.98976 8.61066 7.1275C8.34136 7.23163 8.09684 7.39109 7.89282 7.59562C7.68881 7.80015 7.52984 8.0452 7.42615 8.315C7.28875 8.68649 7.21614 9.07887 7.21146 9.475C7.1815 10.1337 7.17402 10.3312 7.17402 12C7.17402 13.6687 7.1815 13.8662 7.21146 14.525C7.21599 14.9215 7.28861 15.3144 7.42615 15.6862C7.53012 15.9559 7.68935 16.2008 7.89358 16.4051C8.09781 16.6094 8.3425 16.7687 8.61191 16.8725C8.98286 17.0101 9.37466 17.0828 9.77021 17.0875C10.428 17.1175 10.6252 17.1237 12.2915 17.1237C13.9578 17.1237 14.155 17.1175 14.8128 17.0862C15.2087 17.0821 15.6009 17.0098 15.9724 16.8725C16.2417 16.7684 16.4862 16.6089 16.6902 16.4044C16.8942 16.1999 17.0532 15.9548 17.1569 15.685C17.2943 15.3135 17.3669 14.9211 17.3716 14.525C17.4015 13.8662 17.4078 13.6687 17.4078 12C17.4078 10.3312 17.4015 10.1337 17.3703 9.475C17.3662 9.07852 17.294 8.68571 17.1569 8.31375V8.31375ZM12.2915 15.21C11.6576 15.21 11.0378 15.0217 10.5107 14.669C9.98363 14.3163 9.5728 13.815 9.3302 13.2284C9.0876 12.6419 9.02412 11.9964 9.1478 11.3738C9.27148 10.7511 9.57675 10.1791 10.025 9.73019C10.4733 9.28126 11.0444 8.97554 11.6662 8.85168C12.288 8.72782 12.9324 8.79139 13.5181 9.03435C14.1038 9.2773 14.6044 9.68874 14.9566 10.2166C15.3088 10.7445 15.4968 11.3651 15.4968 12C15.4968 12.8513 15.1591 13.6678 14.558 14.2698C13.9569 14.8718 13.1416 15.21 12.2915 15.21ZM15.6229 9.41375C15.4748 9.41375 15.33 9.36976 15.2068 9.28735C15.0836 9.20494 14.9877 9.08781 14.931 8.95076C14.8743 8.81372 14.8595 8.66292 14.8884 8.51743C14.9173 8.37194 14.9886 8.23831 15.0933 8.13342C15.1981 8.02853 15.3315 7.9571 15.4768 7.92816C15.622 7.89922 15.7726 7.91407 15.9095 7.97084C16.0463 8.0276 16.1633 8.12373 16.2456 8.24707C16.3278 8.37041 16.3718 8.51541 16.3718 8.66375C16.3718 8.86266 16.2929 9.05343 16.1524 9.19408C16.012 9.33473 15.8215 9.41375 15.6229 9.41375V9.41375ZM14.3722 12C14.3722 12.4121 14.2502 12.815 14.0215 13.1577C13.7929 13.5003 13.468 13.7674 13.0878 13.9251C12.7076 14.0828 12.2892 14.1241 11.8856 14.0437C11.482 13.9633 11.1112 13.7648 10.8202 13.4734C10.5292 13.182 10.3311 12.8107 10.2508 12.4065C10.1705 12.0023 10.2117 11.5833 10.3692 11.2026C10.5267 10.8218 10.7934 10.4964 11.1355 10.2674C11.4777 10.0385 11.88 9.91625 12.2915 9.91625C12.8433 9.91625 13.3726 10.1358 13.7628 10.5266C14.153 10.9173 14.3722 11.4474 14.3722 12V12ZM12.2915 0C9.92161 0 7.60493 0.703788 5.63443 2.02236C3.66393 3.34094 2.12812 5.21508 1.22119 7.4078C0.314274 9.60051 0.076982 12.0133 0.539326 14.3411C1.00167 16.6689 2.14289 18.807 3.81866 20.4853C5.49443 22.1635 7.62949 23.3064 9.95385 23.7694C12.2782 24.2324 14.6875 23.9948 16.877 23.0866C19.0665 22.1783 20.9379 20.6402 22.2545 18.6668C23.5712 16.6935 24.2739 14.3734 24.2739 12C24.2739 8.8174 23.0115 5.76515 20.7644 3.51472C18.5172 1.26428 15.4694 0 12.2915 0V0ZM18.4949 14.5762C18.4843 15.0949 18.386 15.608 18.2041 16.0937C18.0438 16.5088 17.7987 16.8858 17.4844 17.2005C17.1702 17.5152 16.7938 17.7607 16.3793 17.9212C15.8946 18.1033 15.3827 18.2018 14.8652 18.2125C14.1987 18.2425 13.9865 18.25 12.2915 18.25C10.5965 18.25 10.3843 18.2425 9.71778 18.2125C9.2003 18.2018 8.68838 18.1033 8.20375 17.9212C7.78926 17.7607 7.41284 17.5152 7.09859 17.2005C6.78435 16.8858 6.53923 16.5088 6.37893 16.0937C6.19715 15.6084 6.09882 15.0957 6.08811 14.5775C6.05815 13.91 6.05066 13.6975 6.05066 12C6.05066 10.3025 6.05815 10.09 6.08811 9.4225C6.09842 8.90433 6.19633 8.39165 6.37768 7.90625C6.53797 7.4908 6.78322 7.1135 7.09769 6.79856C7.41217 6.48363 7.78891 6.23802 8.20375 6.0775C8.68845 5.89588 9.20037 5.79782 9.71778 5.7875C10.3843 5.7575 10.5965 5.75 12.2915 5.75C13.9865 5.75 14.1987 5.7575 14.8652 5.7875C15.3826 5.79782 15.8946 5.89588 16.3793 6.0775C16.7939 6.23817 17.1704 6.48384 17.4846 6.79877C17.7989 7.1137 18.0439 7.49092 18.2041 7.90625C18.3859 8.39158 18.4842 8.90426 18.4949 9.4225C18.5249 10.09 18.5324 10.3025 18.5324 12C18.5324 13.6975 18.5249 13.91 18.4949 14.5775V14.5762Z" fill="#949597"/>
</svg>
