<svg width="25" height="24" viewBox="0 0 25 24" fill="none" xmlns="http://www.w3.org/2000/svg">
<path d="M12.4199 0C5.80213 0 0.4375 5.3725 0.4375 12C0.4375 18.6275 5.80213 24 12.4199 24C19.0377 24 24.4023 18.6275 24.4023 12C24.4023 5.3725 19.0377 0 12.4199 0ZM9.48672 16.9738H7.06028V9.15375H9.48672V16.9738ZM8.25853 8.19375C7.49215 8.19375 6.99663 7.65 6.99663 6.9775C6.99663 6.29125 7.50713 5.76375 8.28973 5.76375C9.07233 5.76375 9.55163 6.29125 9.56661 6.9775C9.56661 7.65 9.07233 8.19375 8.25853 8.19375ZM18.3487 16.9738H15.9223V12.64C15.9223 11.6313 15.5703 10.9462 14.6928 10.9462C14.0226 10.9462 13.6244 11.41 13.4484 11.8563C13.3835 12.015 13.3673 12.24 13.3673 12.4638V16.9725H10.9396V11.6475C10.9396 10.6713 10.9084 9.855 10.8759 9.1525H12.9841L13.0952 10.2388H13.1439C13.4634 9.72875 14.246 8.97625 15.5553 8.97625C17.1517 8.97625 18.3487 10.0475 18.3487 12.35V16.9738Z" fill="#949597"/>
</svg>
