<svg width="41" height="39" viewBox="0 0 41 39" fill="none" xmlns="http://www.w3.org/2000/svg">
<path d="M24.1459 33.1261C24.7275 32.7903 25.1502 32.2345 25.3211 31.5809C25.4921 30.9273 25.3972 30.2295 25.0574 29.6409L23.7761 27.4217C23.4363 26.8332 22.8794 26.4021 22.2279 26.2233C21.5764 26.0446 20.8837 26.1328 20.3022 26.4685C15.9167 29.0005 13.3542 24.5621 12.073 22.3429C10.7917 20.1237 8.2292 15.6853 12.6146 13.1534C13.1962 12.8176 13.6189 12.2618 13.7899 11.6082C13.9608 10.9546 13.8659 10.2568 13.5261 9.66824L12.2449 7.44905C11.9051 6.86048 11.3481 6.4294 10.6966 6.25064C10.0452 6.07187 9.35244 6.16007 8.77089 6.49583C3.28908 9.66074 1.28125 13.7789 7.68751 24.8748C14.0938 35.9708 18.6641 36.291 24.1459 33.1261Z" stroke="#B4252A" stroke-width="2" stroke-linecap="round" stroke-linejoin="round"/>
<path d="M35.8156 23.962C36.9804 19.4988 36.3314 14.7345 34.0113 10.7159C31.6911 6.6973 27.8896 3.75311 23.442 2.53019M29.1022 22.1199C29.4492 20.7944 29.5324 19.4103 29.3472 18.0468C29.162 16.6833 28.7119 15.3671 28.0227 14.1734C27.3335 12.9796 26.4187 11.9318 25.3305 11.0896C24.2423 10.2475 23.002 9.62754 21.6806 9.26527M22.4248 20.2644C22.6577 19.3713 22.5277 18.418 22.0635 17.6139C21.5993 16.8099 20.8387 16.2207 19.9488 15.9758" stroke="#B4252A" stroke-width="2" stroke-linecap="round" stroke-linejoin="round"/>
</svg>
